<?xml version="1.0" standalone="no"?>
<!DOCTYPE svg PUBLIC "-//W3C//DTD SVG 20010904//EN"
 "http://www.w3.org/TR/2001/REC-SVG-20010904/DTD/svg10.dtd">
<svg version="1.0" xmlns="http://www.w3.org/2000/svg"
 width="800.000000pt" height="800.000000pt" viewBox="0 0 800.000000 800.000000"
 preserveAspectRatio="xMidYMid meet">

<g transform="translate(0.000000,800.000000) scale(0.100000,-0.100000)"
fill="#000000" stroke="none">
<path d="M5771 6896 c-32 -51 -51 -111 -71 -224 -10 -57 -24 -110 -31 -118 -6
-8 -24 -14 -39 -14 -30 0 -76 33 -215 153 -102 88 -193 154 -226 162 -34 8
-75 -25 -89 -73 -26 -93 -9 -239 75 -637 36 -172 46 -241 46 -317 0 -54 -2
-102 -5 -107 -15 -24 -36 -285 -36 -448 0 -100 -4 -193 -10 -208 -11 -29 -29
-38 -255 -130 -199 -81 -575 -268 -745 -370 -295 -178 -530 -356 -726 -550
-192 -192 -321 -363 -427 -571 -211 -413 -293 -849 -285 -1503 l3 -273 -35
-30 c-88 -74 -229 -134 -385 -163 -74 -14 -122 -16 -275 -11 -640 23 -984 143
-1205 419 -166 208 -243 453 -231 737 8 203 48 361 149 586 52 115 97 256 97
300 -1 83 -120 121 -203 64 -48 -33 -126 -138 -173 -232 -80 -160 -136 -352
-170 -578 -23 -158 -15 -464 15 -595 85 -365 264 -628 566 -827 211 -140 393
-201 725 -243 238 -30 733 -36 2620 -33 1737 3 1858 4 1882 20 32 21 42 49 34
92 -3 18 -83 171 -177 342 -95 170 -191 350 -214 399 -52 110 -109 285 -137
424 -24 120 -22 132 44 341 43 135 87 231 121 268 32 34 75 26 242 -46 193
-82 233 -94 590 -162 327 -63 487 -100 535 -125 61 -31 112 -137 129 -265 32
-239 130 -332 292 -275 93 33 138 106 139 225 0 168 -105 406 -262 590 -89
104 -146 139 -323 200 -289 100 -567 220 -642 276 -25 19 -42 51 -82 153 -49
126 -91 269 -91 310 0 11 18 85 40 163 124 437 136 645 64 1148 -13 96 -27
213 -30 260 -8 109 -3 120 151 305 175 211 205 259 215 338 4 37 14 89 21 116
10 39 10 59 1 88 -14 46 -77 139 -112 165 -15 11 -80 28 -164 43 -77 15 -147
30 -157 35 -9 5 -34 32 -54 59 -40 56 -72 68 -148 57 -27 -4 -61 -1 -92 9 -28
8 -65 15 -82 15 -43 0 -57 23 -94 156 -17 59 -35 116 -40 126 -15 27 -35 22
-58 -16z m-701 -4296 c22 -12 31 -49 75 -324 60 -372 61 -374 217 -699 60
-126 107 -235 104 -243 -7 -19 -32 -18 -100 6 -54 18 -61 18 -142 3 -81 -15
-87 -14 -127 3 -22 10 -83 51 -135 91 -52 40 -104 73 -116 74 -12 0 -53 0 -93
-1 -62 -1 -73 1 -82 19 -9 16 -4 33 29 94 46 85 110 273 135 396 21 104 16
181 -14 244 l-23 47 85 138 c96 155 130 183 187 152z"/>
</g>
</svg>
